<svg xmlns="http://www.w3.org/2000/svg" viewBox="0 0 900 460" font-family="-apple-system, BlinkMacSystemFont, 'Segoe UI', sans-serif">
  <defs>
    <linearGradient id="areaGrad" x1="0" y1="0" x2="0" y2="1">
      <stop offset="0%" stop-color="#7c3aed" stop-opacity="0.15"/>
      <stop offset="100%" stop-color="#7c3aed" stop-opacity="0.01"/>
    </linearGradient>
  </defs>

  <rect width="900" height="460" fill="#fafafa" rx="12"/>

  <text x="80" y="32" font-size="15" font-weight="600" fill="#1a1a1a">ClickUp blog organic traffic (clickup.com/blog/*)</text>

  <!-- Y axis: 0 to 1.2M. Chart area y=50..380 = 330px -->
  <line x1="80" y1="380" x2="850" y2="380" stroke="#e5e5e5" stroke-width="1"/>
  <line x1="80" y1="325" x2="850" y2="325" stroke="#e5e5e5" stroke-width="1" stroke-dasharray="4,4"/>
  <line x1="80" y1="270" x2="850" y2="270" stroke="#e5e5e5" stroke-width="1" stroke-dasharray="4,4"/>
  <line x1="80" y1="215" x2="850" y2="215" stroke="#e5e5e5" stroke-width="1" stroke-dasharray="4,4"/>
  <line x1="80" y1="160" x2="850" y2="160" stroke="#e5e5e5" stroke-width="1" stroke-dasharray="4,4"/>
  <line x1="80" y1="105" x2="850" y2="105" stroke="#e5e5e5" stroke-width="1" stroke-dasharray="4,4"/>
  <line x1="80" y1="50" x2="850" y2="50" stroke="#e5e5e5" stroke-width="1" stroke-dasharray="4,4"/>

  <text x="72" y="384" font-size="11" fill="#888" text-anchor="end">0</text>
  <text x="72" y="329" font-size="11" fill="#888" text-anchor="end">200K</text>
  <text x="72" y="274" font-size="11" fill="#888" text-anchor="end">400K</text>
  <text x="72" y="219" font-size="11" fill="#888" text-anchor="end">600K</text>
  <text x="72" y="164" font-size="11" fill="#888" text-anchor="end">800K</text>
  <text x="72" y="109" font-size="11" fill="#888" text-anchor="end">1.0M</text>
  <text x="72" y="54" font-size="11" fill="#888" text-anchor="end">1.2M</text>

  <!-- 25 data points: Apr24..Apr26. x: 80..850 = 770px, 24 gaps = 32.1px each
       Scale: y = 380 - (value/1200000)*330
       Apr24: 931018  -> 380-256.0 = 124.0
       May24: 676434  -> 380-186.0 = 194.0
       Jun24: 659428  -> 380-181.3 = 198.7
       Jul24: 655018  -> 380-180.1 = 199.9
       Aug24: 728377  -> 380-200.3 = 179.7
       Sep24: 799988  -> 380-220.0 = 160.0
       Oct24: 920593  -> 380-253.2 = 126.8
       Nov24: 997762  -> 380-274.4 = 105.6
       Dec24: 1085109 -> 380-298.4 = 81.6
       Jan25: 1193114 -> 380-328.1 = 51.9
       Feb25: 1163137 -> 380-319.9 = 60.1
       Mar25: 942293  -> 380-259.1 = 120.9
       Apr25: 492450  -> 380-135.4 = 244.6
       May25: 443016  -> 380-121.8 = 258.2
       Jun25: 364093  -> 380-100.1 = 279.9
       Jul25: 404029  -> 380-111.1 = 268.9
       Aug25: 272281  -> 380-74.9 = 305.1
       Sep25: 186149  -> 380-51.2 = 328.8
       Oct25: 134111  -> 380-36.9 = 343.1
       Nov25: 130419  -> 380-35.9 = 344.1
       Dec25: 133621  -> 380-36.7 = 343.3
       Jan26: 127325  -> 380-35.0 = 345.0
       Feb26: 86940   -> 380-23.9 = 356.1
       Mar26: 63636   -> 380-17.5 = 362.5
       Apr26: 28790   -> 380-7.9 = 372.1
  -->

  <!-- X labels -->
  <text x="80" y="400" font-size="9" fill="#888" text-anchor="middle">Apr 24</text>
  <text x="176" y="400" font-size="9" fill="#888" text-anchor="middle">Jun</text>
  <text x="240" y="400" font-size="9" fill="#888" text-anchor="middle">Aug</text>
  <text x="305" y="400" font-size="9" fill="#888" text-anchor="middle">Oct</text>
  <text x="369" y="400" font-size="9" fill="#888" text-anchor="middle">Dec</text>
  <text x="401" y="400" font-size="9" fill="#888" text-anchor="middle">Jan 25</text>
  <text x="465" y="400" font-size="9" fill="#888" text-anchor="middle">Mar</text>
  <text x="529" y="400" font-size="9" fill="#888" text-anchor="middle">May</text>
  <text x="594" y="400" font-size="9" fill="#888" text-anchor="middle">Jul</text>
  <text x="658" y="400" font-size="9" fill="#888" text-anchor="middle">Sep</text>
  <text x="722" y="400" font-size="9" fill="#888" text-anchor="middle">Nov</text>
  <text x="786" y="400" font-size="9" fill="#888" text-anchor="middle">Jan 26</text>
  <text x="850" y="400" font-size="9" fill="#888" text-anchor="middle">Apr</text>

  <!-- Area fill -->
  <polygon points="80,124 112,194 144,199 176,200 208,180 240,160 273,127 305,106 337,82 369,52 401,60 433,121 465,245 497,258 529,280 562,269 594,305 626,329 658,343 690,344 722,343 754,345 786,356 818,363 850,372 850,380 80,380" fill="url(#areaGrad)"/>

  <!-- Line -->
  <polyline points="80,124 112,194 144,199 176,200 208,180 240,160 273,127 305,106 337,82 369,52 401,60 433,121 465,245 497,258 529,280 562,269 594,305 626,329 658,343 690,344 722,343 754,345 786,356 818,363 850,372" fill="none" stroke="#7c3aed" stroke-width="2.5" stroke-linejoin="round" stroke-linecap="round"/>

  <!-- Key data points -->
  <circle cx="80" cy="124" r="3.5" fill="#7c3aed"/>
  <circle cx="369" cy="52" r="4.5" fill="#7c3aed" stroke="#fff" stroke-width="2"/>
  <circle cx="465" cy="245" r="3.5" fill="#7c3aed"/>
  <circle cx="850" cy="372" r="4" fill="#7c3aed"/>

  <!-- Value labels -->
  <text x="80" y="116" font-size="10" fill="#555" text-anchor="middle">931K</text>
  <text x="369" y="44" font-size="11" font-weight="600" fill="#7c3aed" text-anchor="middle">1.19M</text>
  <text x="465" y="259" font-size="10" fill="#555" text-anchor="middle">492K</text>
  <text x="850" y="366" font-size="10" fill="#555" text-anchor="middle">29K</text>

  <!-- Google update annotations -->
  <!-- Mar 2024 Core+Spam (before our chart, referenced in intro) -->
  <line x1="144" y1="199" x2="144" y2="425" stroke="#ef4444" stroke-width="1" stroke-dasharray="3,3"/>
  <text x="144" y="437" font-size="7.5" fill="#ef4444" text-anchor="middle">Jun 24 Spam</text>

  <line x1="208" y1="180" x2="208" y2="425" stroke="#ef4444" stroke-width="1" stroke-dasharray="3,3"/>
  <text x="208" y="437" font-size="7.5" fill="#ef4444" text-anchor="middle">Aug 24 Core</text>

  <line x1="305" y1="106" x2="305" y2="425" stroke="#ef4444" stroke-width="1" stroke-dasharray="3,3"/>
  <text x="305" y="437" font-size="7.5" fill="#ef4444" text-anchor="middle">Nov 24 Core</text>

  <line x1="337" y1="82" x2="337" y2="415" stroke="#ef4444" stroke-width="1" stroke-dasharray="3,3"/>
  <text x="337" y="427" font-size="7.5" fill="#ef4444" text-anchor="middle">Dec 24 Core+Spam</text>

  <line x1="433" y1="121" x2="433" y2="425" stroke="#ef4444" stroke-width="1" stroke-dasharray="3,3"/>
  <text x="433" y="437" font-size="7.5" fill="#ef4444" text-anchor="middle">Mar 25 Core</text>

  <line x1="529" y1="280" x2="529" y2="425" stroke="#ef4444" stroke-width="1" stroke-dasharray="3,3"/>
  <text x="529" y="437" font-size="7.5" fill="#ef4444" text-anchor="middle">Jun 25 Core</text>

  <line x1="594" y1="305" x2="594" y2="425" stroke="#ef4444" stroke-width="1" stroke-dasharray="3,3"/>
  <text x="594" y="437" font-size="7.5" fill="#ef4444" text-anchor="middle">Aug 25 Spam</text>

  <line x1="722" y1="343" x2="722" y2="425" stroke="#ef4444" stroke-width="1" stroke-dasharray="3,3"/>
  <text x="722" y="437" font-size="7.5" fill="#ef4444" text-anchor="middle">Dec 25 Core</text>

  <line x1="818" y1="363" x2="818" y2="425" stroke="#ef4444" stroke-width="1" stroke-dasharray="3,3"/>
  <text x="818" y="437" font-size="7.5" fill="#ef4444" text-anchor="middle">Mar 26 Core+Spam</text>
</svg>
